<?xml version="1.0" encoding="UTF-8" standalone="no"?>
<svg
   width="297mm"
   height="210mm"
   viewBox="0 0 1122.5197 793.70079"
   version="1.1"
   xml:space="preserve"
   style="clip-rule:evenodd;fill-rule:evenodd;stroke-linecap:round;stroke-linejoin:round"
   id="svg521"
   sodipodi:docname="peano.svg"
   inkscape:version="1.1.2 (b8e25be8, 2022-02-05)"
   xmlns:inkscape="http://www.inkscape.org/namespaces/inkscape"
   xmlns:sodipodi="http://sodipodi.sourceforge.net/DTD/sodipodi-0.dtd"
   xmlns="http://www.w3.org/2000/svg"
   xmlns:svg="http://www.w3.org/2000/svg"><defs
     id="defs525" /><sodipodi:namedview
     id="namedview523"
     pagecolor="#ffffff"
     bordercolor="#666666"
     borderopacity="1.0"
     inkscape:pageshadow="2"
     inkscape:pageopacity="0.0"
     inkscape:pagecheckerboard="0"
     showgrid="false"
     inkscape:zoom="0.24250571"
     inkscape:cx="61.854214"
     inkscape:cy="498.95733"
     inkscape:window-width="1553"
     inkscape:window-height="870"
     inkscape:window-x="0"
     inkscape:window-y="23"
     inkscape:window-maximized="0"
     inkscape:current-layer="svg521"
     showguides="false"
     units="mm"
     inkscape:document-units="mm" /><g
     id="Standard" /><path
     d="m 1384.3743,316.32371 c -24.3989,-10.98993 -48.7976,-15.93524 -73.59,-15.20273 -3.804,0.36667 -6.2965,4.39621 -7.7393,6.96027 v 137.59877 c 0,20.57801 -16.6818,37.25981 -37.2598,37.25981 H 111.82162 c -9.86308,0 -19.413034,-4.53277 -26.30144,-12.84304 -7.044966,-8.15902 -10.958701,-19.33992 -10.958701,-30.82298 V 123.95333 c 0,-11.63401 3.913735,-22.66396 10.958701,-30.822983 7.04497,-8.159028 16.43836,-12.842757 26.30144,-12.842757 H 1265.7852 c 9.8818,0 19.3589,3.925607 26.3464,10.913076 6.9878,6.98747 10.9134,16.464614 10.9134,26.346754 v 132.40662 c 0.8115,1.44215 1.9553,3.34841 3.4778,4.80528 1.184,1.13313 2.5972,1.99468 4.2615,2.15499 1.5944,0.0593 3.1884,0.0932 4.7819,0.10173 23.0508,0.12632 45.9867,-5.02532 68.8081,-15.30464"
     style="clip-rule:evenodd;fill:none;fill-rule:nonzero;stroke:#000000;stroke-width:13.0218px;stroke-linecap:round;stroke-linejoin:round"
     id="path506-8" /><path
     d="M 1125.5098,482.9386 V 239.15345"
     style="clip-rule:evenodd;fill:none;fill-rule:nonzero;stroke:#000000;stroke-width:13.0218px;stroke-linecap:round;stroke-linejoin:round"
     id="path508-2" /><path
     d="M 778.89891,482.9386 V 239.15345"
     style="clip-rule:evenodd;fill:none;fill-rule:nonzero;stroke:#000000;stroke-width:13.0218px;stroke-linecap:round;stroke-linejoin:round"
     id="path510-0" /><path
     d="M 432.12858,482.9386 V 239.15345"
     style="clip-rule:evenodd;fill:none;fill-rule:nonzero;stroke:#000000;stroke-width:13.0218px;stroke-linecap:round;stroke-linejoin:round"
     id="path512-7" /><path
     d="M 258.82409,80.287277 V 328.08743"
     style="clip-rule:evenodd;fill:none;fill-rule:nonzero;stroke:#000000;stroke-width:13.0218px;stroke-linecap:round;stroke-linejoin:round"
     id="path514-4" /><path
     d="M 605.43721,80.287277 V 328.08743"
     style="clip-rule:evenodd;fill:none;fill-rule:nonzero;stroke:#000000;stroke-width:13.0218px;stroke-linecap:round;stroke-linejoin:round"
     id="path516-8" /><path
     d="M 952.20438,80.287277 V 328.08743"
     style="clip-rule:evenodd;fill:none;fill-rule:nonzero;stroke:#000000;stroke-width:13.0218px;stroke-linecap:round;stroke-linejoin:round"
     id="path518-5" /></svg>
