<?xml version="1.0" encoding="utf-8"?>
<!-- Generator: Adobe Illustrator 16.0.0, SVG Export Plug-In . SVG Version: 6.00 Build 0)  -->
<!DOCTYPE svg PUBLIC "-//W3C//DTD SVG 1.1//EN" "http://www.w3.org/Graphics/SVG/1.1/DTD/svg11.dtd">
<svg version="1.1" id="Layer_1" xmlns="http://www.w3.org/2000/svg" xmlns:xlink="http://www.w3.org/1999/xlink" x="0px" y="0px"
	 width="1190.551px" height="841.89px" viewBox="0 0 1190.551 841.89" enable-background="new 0 0 1190.551 841.89"
	 xml:space="preserve">


<ellipse fill="none" stroke="#000000" cx="595.276" cy="733.379" rx="83.032" ry="40.14"/>
<circle fill="none" stroke="#000000" cx="595.276" cy="525.737" r="63.095"/>
<g>
	<line fill="none" stroke="#000000" x1="264.807" y1="490.282" x2="264.807" y2="334.014"/>
	<line fill="none" stroke="#000000" x1="287.132" y1="490.282" x2="287.132" y2="334.014"/>

</g>
<g>
	<line fill="none" stroke="#000000" x1="46.406" y1="334.018" x2="202.675" y2="334.018"/>
	<line fill="none" stroke="#000000" x1="46.406" y1="356.34" x2="202.675" y2="356.34"/>
	<line fill="none" stroke="#000000" x1="46.406" y1="378.663" x2="202.675" y2="378.663"/>

</g>
<path d='M 635.4524,248.0420  L 688.3073,241.2562 L 686.7435,466.6385 L 635.7381,477.0426 L 635.4524,248.0420 L 604.9174,236.6926 L 606.2484,459.6342 L 635.7381,477.0426
M 606.1188,437.9299  L 582.5129,442.3966
M 174.7408,319.6028  L 162.8901,321.1664
M 149.8817,300.6040  L 139.0393,301.9658
M 127.0493,283.1036  L 117.0914,284.2971' style='stroke:#ff0000;stroke-width:1;fill:none'/>
<style type="text/css">
	.st0{fill:none;stroke:#000000;stroke-linecap:round;stroke-linejoin:round;}
</style>
<polygon class="st0" points="307.8,697.9 811.8,477.1 520,252.8 147.6,348 "/>
<polygon class="st0" points="447.2,358.8 439.3,361.1 473.4,397.6 513.6,384.6 509.4,380.5 477.5,390.7 "/>
<polygon class="st0" fill="none" stroke="#000000" points="307.8,697.9 811.8,477.1 520,252.8 147.6,348 "/>
<polygon class="st0" points="400.2,372.8 391.9,375.3 423.9,413.6 466.1,399.9 462.1,395.6 428.7,406.3 "/>
<polygon class="st0" points="400.1,365.3 391.8,367.7 423.9,405.8 466.4,392.2 462.4,387.9 428.7,398.5 "/>
<g>
	<path fill="none" stroke="#000000" d="M492.326,118.865h-2.305v6.984c0,2.171-1.559,3.19-3.188,3.19
		c-1.627,0-3.322-1.019-3.322-3.19v-6.984h-11.463c-2.238,0-3.459-1.831-3.459-3.73c0-0.612,0.138-1.153,0.339-1.628l13.021-30.112
		c0.613-1.357,1.696-1.968,2.852-1.968c2.101,0,3.39,1.424,3.39,3.257c0,0.475,0,0.882-0.271,1.356l-11.461,26.382h7.053v-4.68
		c0-2.17,1.627-3.256,3.255-3.256c1.629,0,3.256,1.086,3.256,3.256v4.68h2.307c2.17,0,3.257,1.627,3.257,3.188
		C495.585,117.239,494.498,118.865,492.326,118.865z"/>
	<path fill="none" stroke="#000000" d="M513.825,129.039h-0.679c-6.307,0-11.393-4.953-11.393-11.327v-5.9
		c0-3.188,1.559-6.036,3.662-8.139c-2.103-2.101-3.662-4.883-3.662-8.07v-2.85c0-6.308,5.087-11.327,11.393-11.327h0.679
		c6.308,0,11.394,5.02,11.394,11.327v2.85c0,3.187-1.423,5.969-3.527,8.07c2.104,2.102,3.527,4.952,3.527,8.139v5.902
		C525.22,124.088,520.133,129.039,513.825,129.039z M518.71,92.754c0-2.645-2.17-4.883-4.884-4.883h-0.679
		c-2.712,0-4.883,2.238-4.883,4.883v2.85c0,2.713,2.17,4.814,4.883,4.814h0.679c2.714,0,4.884-2.102,4.884-4.814V92.754z
		 M518.71,111.812c0-2.712-2.17-4.951-4.884-4.951h-0.679c-2.712,0-4.883,2.238-4.883,4.951v5.969c0,2.645,2.17,4.883,4.883,4.883
		h0.679c2.714,0,4.884-2.239,4.884-4.883V111.812z"/>
	<path fill="none" stroke="#000000" d="M565.638,129.039h-0.476c-1.087,0-3.391-0.407-4.814-1.696v12.683
		c0,2.17-1.627,3.257-3.256,3.257c-1.626,0-3.256-1.086-3.256-3.257V98.857c0-2.102,1.628-3.255,3.256-3.255
		c1.899,0,2.782,0.677,3.256,1.763c1.424-1.56,3.729-1.763,4.814-1.763h0.476c6.239,0,11.259,5.018,11.259,11.191v11.122
		C576.897,124.224,571.878,129.039,565.638,129.039z M570.384,106.794c0-2.646-2.102-4.748-4.746-4.748h-0.542
		c-2.646,0-4.748,2.307-4.748,4.748v11.122c0,2.645,2.103,4.747,4.748,4.747h0.542c2.646,0,4.746-2.102,4.746-4.747V106.794z"/>


</g>
</svg>
