<?xml version="1.0" encoding="UTF-8" standalone="no"?>
<svg
   width="100%"
   height="100%"
   viewBox="0 0 298 421"
   version="1.1"
   xml:space="preserve"
   style="fill-rule:evenodd;clip-rule:evenodd;stroke-linecap:round;stroke-linejoin:round;stroke-miterlimit:1.5;"
   id="svg6903"
   sodipodi:docname="gripper_claw_01_36dpi.svg"
   inkscape:version="1.1.2 (b8e25be8, 2022-02-05)"
   xmlns:inkscape="http://www.inkscape.org/namespaces/inkscape"
   xmlns:sodipodi="http://sodipodi.sourceforge.net/DTD/sodipodi-0.dtd"
   xmlns="http://www.w3.org/2000/svg"
   xmlns:svg="http://www.w3.org/2000/svg"><defs
   id="defs6907" /><sodipodi:namedview
   id="namedview6905"
   pagecolor="#ffffff"
   bordercolor="#666666"
   borderopacity="1.0"
   inkscape:pageshadow="2"
   inkscape:pageopacity="0.0"
   inkscape:pagecheckerboard="0"
   showgrid="false"
   inkscape:zoom="1.147644"
   inkscape:cx="135.49498"
   inkscape:cy="185.16196"
   inkscape:window-width="1154"
   inkscape:window-height="789"
   inkscape:window-x="264"
   inkscape:window-y="137"
   inkscape:window-maximized="0"
   inkscape:current-layer="svg6903" />
    
<path
   id="path6895-3"
   style="clip-rule:evenodd;fill:none;fill-rule:evenodd;stroke:#009026;stroke-width:3.00018px;stroke-linecap:round;stroke-linejoin:round;stroke-miterlimit:1.5"
   d="m 110.92428,89.757497 c -2.03922,-0.17135 -4.14305,0.0616 -6.21094,0.71484 -21.812069,6.60316 -42.355359,18.499903 -59.582029,35.726563 -55.88423,55.88424 -55.88139,146.63033 0,202.51172 21.10098,21.10098 47.173,34.23513 74.460939,39.40039 -2.16828,21.85023 -10.10547,38.85547 -10.10547,38.85547 h 31.74414 c -7.95153,-20.18782 -4.68336,-35.51838 -4.63086,-36.67773 39.84636,2.71035 80.61134,-11.1504 111.04102,-41.58008 55.88068,-55.88068 55.88849,-146.61932 0,-202.50781 -17.22139,-17.22139 -37.75733,-29.117343 -59.5586,-35.720713 -8.43855,-2.69063 -17.49006,1.93107 -20.25585,10.355473 -2.77421,8.47871 1.85137,17.61643 10.33007,20.39063 l 0.008,0.0215 c 23.34304,11.67862 39.39967,35.8229 39.39257,63.68555 -7.1e-4,19.64008 -7.9728,37.43179 -20.85546,50.31445 -12.88267,12.88267 -30.67509,20.85547 -50.31446,20.85547 -39.27874,0 -71.164769,-31.88461 -71.164059,-71.16406 0,-19.63937 7.97281,-37.43179 20.85547,-50.31445 4.220189,-4.2202 8.964519,-7.9143 14.126949,-10.97657 1.45025,-0.85425 2.92713,-1.6641 4.44336,-2.41406 h -0.0293 c 8.47303,-2.78272 13.10837,-11.916 10.33204,-20.39258 -2.08651,-6.363813 -7.74887,-10.556443 -14.02735,-11.083983 z m 77.1582,0.72266 c 0.0473,0.0151 0.0953,0.0157 0.14258,0.0312 l -0.88672,-0.27735 c 0.24998,0.0742 0.4945,0.17048 0.74414,0.2461 z m -83.36914,-0.008 c 0.24122,-0.073 0.47723,-0.16655 0.71875,-0.23828 l -0.88281,0.27344 c 0.0543,-0.0178 0.1097,-0.018 0.16406,-0.0352 z" /></svg>
