<?xml version="1.0" encoding="UTF-8" standalone="no"?><!DOCTYPE svg PUBLIC "-//W3C//DTD SVG 1.1//EN" "http://www.w3.org/Graphics/SVG/1.1/DTD/svg11.dtd"><svg width="100%" height="100%" viewBox="0 0 596 842" version="1.1" xmlns="http://www.w3.org/2000/svg" xmlns:xlink="http://www.w3.org/1999/xlink" xml:space="preserve" xmlns:serif="http://www.serif.com/" style="fill-rule:evenodd;clip-rule:evenodd;stroke-linecap:round;stroke-linejoin:round;stroke-miterlimit:1.5;"><g><g><path d="M223.834,827.057c-0,0 15.885,-33.996 20.215,-77.702c-54.576,-10.33 -106.721,-36.601 -148.923,-78.803c-111.763,-111.763 -111.767,-293.252 0.001,-405.021c34.835,-34.834 76.439,-58.814 120.602,-71.929l-1.758,0.548c16.957,-5.555 35.235,3.701 40.79,20.657c5.555,16.956 -3.703,35.233 -20.66,40.788l0.057,-0.001c-3.021,1.511 -5.982,3.125 -8.877,4.839c-10.332,6.118 -19.825,13.504 -28.266,21.943c-25.765,25.765 -41.709,61.35 -41.709,100.629c-0,78.559 63.78,142.338 142.338,142.338c39.279,-0 74.863,-15.945 100.628,-41.71c25.765,-25.764 41.71,-61.349 41.71,-100.628c-0,-55.729 -32.096,-104.02 -78.796,-127.382l-0.001,-0.03c-16.958,-5.555 -26.216,-23.832 -20.661,-40.788c5.555,-16.956 23.833,-26.212 40.79,-20.657l-1.772,-0.546c44.16,13.112 85.766,37.094 120.603,71.931c111.777,111.777 111.763,293.256 0.002,405.018c-60.859,60.859 -142.39,88.58 -222.082,83.159c-0.106,2.319 -6.64,32.982 9.253,73.347" style="fill:none;stroke:#009026;stroke-width:6px;"/></g></g></svg>