<?xml version="1.0" encoding="UTF-8" standalone="no"?><!DOCTYPE svg PUBLIC "-//W3C//DTD SVG 1.1//EN" "http://www.w3.org/Graphics/SVG/1.1/DTD/svg11.dtd"><svg width="100%" height="100%" viewBox="0 0 298 421" version="1.1" xmlns="http://www.w3.org/2000/svg" xmlns:xlink="http://www.w3.org/1999/xlink" xml:space="preserve" xmlns:serif="http://www.serif.com/" style="fill-rule:evenodd;clip-rule:evenodd;stroke-linecap:round;stroke-linejoin:round;stroke-miterlimit:1.5;"><path d="M111.893,413.529l6.041,-17.737l3.918,-21.226l-24.981,-7.347l-16.654,-8.001l-21.389,-14.205l-14.042,-13.551l-14.531,-17.634l-10.613,-19.43l-6.368,-16.981l-5.225,-22.519l-2.398,-20.259l0.929,-21.226l4.245,-18.287l7.837,-22.368l10.287,-17.471l11.429,-14.858l14.695,-14.531l16.491,-12.899l18.45,-10.45l20.083,-6.368l8.816,0.98l5.552,5.062l2.939,5.878l0.326,8.653l-5.061,7.511l-8.327,4.735l-13.226,9.796l-11.755,13.552l-7.674,14.205l-3.103,16.328l-0.979,15.674l4.082,14.695l6.204,14.368l10.123,12.573l12.083,11.755l15.837,6.368l18.287,3.592l20.41,-1.306l18.45,-7.347l13.552,-9.47l10.449,-12.736l8.327,-14.695l3.592,-18.123l-0.816,-20.083l-6.694,-19.267l-9.634,-15.348l-12.245,-11.102l-9.307,-3.756l-8.164,-7.837l-2.122,-7.674l1.796,-9.47l8,-6.694l8.817,-1.306l10.613,3.755l14.042,6.368l15.184,8.163l14.532,11.756l11.756,11.756l11.756,15.348l9.633,15.838l8.164,18.45l4.735,16.981l2.285,17.47l0,19.593l-2.122,20.899l-4.572,16.328l-6.857,16.817l-7.838,15.348l-10.613,13.715l-13.062,13.226l-12.735,10.939l-12.082,8.327l-17.144,8.817l-21.716,7.021l-21.389,2.612l-22.859,1.796l1.689,18.713l4.516,17.698" style="fill:none;stroke:#000;stroke-width:0.12px;"/></svg>