<?xml version="1.0" encoding="UTF-8" standalone="no"?><!DOCTYPE svg PUBLIC "-//W3C//DTD SVG 1.1//EN" "http://www.w3.org/Graphics/SVG/1.1/DTD/svg11.dtd"><svg width="100%" height="100%" viewBox="0 0 2481 3508" version="1.1" xmlns="http://www.w3.org/2000/svg" xmlns:xlink="http://www.w3.org/1999/xlink" xml:space="preserve" xmlns:serif="http://www.serif.com/" style="fill-rule:evenodd;clip-rule:evenodd;stroke-linecap:round;stroke-linejoin:round;stroke-miterlimit:1.5;"><g><g><path d="M932.64,3446.07c0,0 66.187,-141.651 84.231,-323.759c-227.4,-43.044 -444.671,-152.504 -620.512,-328.346c-465.679,-465.678 -465.696,-1221.88 0.006,-1687.59c145.143,-145.144 318.495,-245.061 502.507,-299.705l-7.326,2.283c70.655,-23.147 146.814,15.42 169.96,86.071c23.145,70.649 -15.43,146.803 -86.086,169.95l0.239,-0.003c-12.589,6.293 -24.927,13.02 -36.989,20.161c-43.051,25.49 -82.605,56.265 -117.774,91.43c-107.353,107.353 -173.79,255.623 -173.79,419.285c0,327.329 265.751,593.076 593.076,593.076c163.666,-0 311.932,-66.437 419.285,-173.79c107.353,-107.353 173.79,-255.623 173.79,-419.286c0,-232.202 -133.732,-433.416 -328.315,-530.756l-0.007,-0.126c-70.655,-23.147 -109.23,-99.301 -86.085,-169.95c23.146,-70.651 99.304,-109.218 169.96,-86.071l-7.384,-2.274c184,54.632 357.358,154.556 502.513,299.71c465.738,465.738 465.678,1221.9 0.006,1687.58c-253.58,253.581 -593.29,369.084 -925.343,346.498c-0.437,9.661 -27.663,137.426 38.557,305.613" style="fill:none;stroke:#009026;stroke-width:25px;"/></g></g></svg>