<?xml version="1.0" encoding="UTF-8" standalone="no"?>
<svg
   width="100%"
   height="100%"
   viewBox="0 0 596 842"
   version="1.1"
   xml:space="preserve"
   style="fill-rule:evenodd;clip-rule:evenodd;stroke-linecap:round;stroke-linejoin:round;stroke-miterlimit:1.5;"
   id="svg2748"
   sodipodi:docname="gripper_claw_01_72dpi_50perc.svg"
   inkscape:version="1.1.2 (b8e25be8, 2022-02-05)"
   xmlns:inkscape="http://www.inkscape.org/namespaces/inkscape"
   xmlns:sodipodi="http://sodipodi.sourceforge.net/DTD/sodipodi-0.dtd"
   xmlns="http://www.w3.org/2000/svg"
   xmlns:svg="http://www.w3.org/2000/svg"><defs
   id="defs2752" /><sodipodi:namedview
   id="namedview2750"
   pagecolor="#ffffff"
   bordercolor="#666666"
   borderopacity="1.0"
   inkscape:pageshadow="2"
   inkscape:pageopacity="0.0"
   inkscape:pagecheckerboard="0"
   showgrid="false"
   inkscape:zoom="0.37899243"
   inkscape:cx="-62.006516"
   inkscape:cy="13.192876"
   inkscape:window-width="782"
   inkscape:window-height="486"
   inkscape:window-x="0"
   inkscape:window-y="23"
   inkscape:window-maximized="0"
   inkscape:current-layer="svg2748" />
    <g
   transform="matrix(0.24,0,0,0.24,-89.711555,-213.72459)"
   id="g2746">
        <g
   transform="matrix(1.47314,-1.47314,1.47314,1.47314,-1562.7,-183.715)"
   id="g2744">
            <g
   transform="matrix(2.00681,0,0,2.00681,-1558.25,-994.447)"
   id="g2742">
                <path
   d="m 771.125,1369.19 c 0,0 17.576,-6.39 34.502,-20.26 -15.59,-22.87 -24.707,-50.5 -24.707,-80.24 0,-78.76 63.947,-142.71 142.711,-142.71 24.548,0 47.657,6.21 67.839,17.15 l -0.813,-0.43 c 7.933,4.02 11.113,13.72 7.094,21.66 -4.017,7.93 -13.719,11.1 -21.651,7.09 l 0.02,0.02 c -1.597,-0.54 -3.209,-1.01 -4.833,-1.43 -5.796,-1.48 -11.743,-2.22 -17.691,-2.22 -18.157,0 -36.313,6.92 -50.153,20.76 -27.681,27.68 -27.68,72.62 0,100.3 13.84,13.84 31.996,20.76 50.153,20.76 18.157,0 36.313,-6.92 50.154,-20.76 19.64,-19.63 25.34,-47.96 17.12,-72.64 l 0.01,-0.02 c -4.02,-7.93 -0.84,-17.63 7.09,-21.65 7.93,-4.01 17.64,-0.84 21.65,7.1 l -0.43,-0.82 c 10.94,20.18 17.15,43.29 17.15,67.84 0,78.77 -63.95,142.71 -142.709,142.71 -42.888,0 -81.383,-18.96 -107.553,-48.95 -0.854,0.78 -13.961,9.28 -22.584,29.11"
   style="fill:none;stroke:#009026;stroke-width:2.99px"
   id="path2740" />
            </g>
        </g>
    </g>
</svg>
