<?xml version="1.0" encoding="UTF-8" standalone="no"?><!DOCTYPE svg PUBLIC "-//W3C//DTD SVG 1.1//EN" "http://www.w3.org/Graphics/SVG/1.1/DTD/svg11.dtd"><svg width="100%" height="100%" viewBox="0 0 298 421" version="1.1" xmlns="http://www.w3.org/2000/svg" xmlns:xlink="http://www.w3.org/1999/xlink" xml:space="preserve" xmlns:serif="http://www.serif.com/" style="fill-rule:evenodd;clip-rule:evenodd;stroke-linecap:round;stroke-linejoin:round;stroke-miterlimit:1.5;"><g><g><path d="M111.917,413.529c-0,-0 7.942,-16.999 10.107,-38.851c-27.287,-5.166 -53.36,-18.301 -74.461,-39.402c-55.881,-55.881 -55.883,-146.626 0.001,-202.51c17.417,-17.418 38.219,-29.408 60.301,-35.965l-0.879,0.274c8.478,-2.778 17.617,1.85 20.395,10.329c2.777,8.477 -1.852,17.616 -10.331,20.394l0.029,-0.001c-1.511,0.755 -2.991,1.563 -4.439,2.42c-5.166,3.058 -9.912,6.751 -14.132,10.971c-12.883,12.883 -20.855,30.675 -20.855,50.314c-0,39.28 31.89,71.169 71.169,71.169c19.64,0 37.432,-7.972 50.314,-20.854c12.882,-12.883 20.855,-30.675 20.855,-50.315c-0,-27.864 -16.048,-52.01 -39.398,-63.69l-0.001,-0.015c-8.478,-2.778 -13.107,-11.917 -10.33,-20.395c2.778,-8.478 11.917,-13.106 20.395,-10.328l-0.886,-0.273c22.08,6.556 42.883,18.547 60.302,35.965c55.888,55.889 55.881,146.629 0,202.509c-30.429,30.43 -71.194,44.29 -111.041,41.58c-0.052,1.159 -3.319,16.491 4.627,36.674" style="fill:none;stroke:#009026;stroke-width:3px;"/></g></g></svg>