<?xml version="1.0" encoding="UTF-8" standalone="no"?>
<svg
   width="297mm"
   height="210mm"
   viewBox="0 0 1122.5197 793.70079"
   version="1.1"
   xml:space="preserve"
   style="clip-rule:evenodd;fill-rule:evenodd;stroke-linecap:round;stroke-linejoin:round"
   id="svg521"
   sodipodi:docname="tessa.svg"
   inkscape:version="1.1.2 (b8e25be8, 2022-02-05)"
   xmlns:inkscape="http://www.inkscape.org/namespaces/inkscape"
   xmlns:sodipodi="http://sodipodi.sourceforge.net/DTD/sodipodi-0.dtd"
   xmlns="http://www.w3.org/2000/svg"
   xmlns:svg="http://www.w3.org/2000/svg"><defs
     id="defs525" /><sodipodi:namedview
     id="namedview523"
     pagecolor="#ffffff"
     bordercolor="#666666"
     borderopacity="1.0"
     inkscape:pageshadow="2"
     inkscape:pageopacity="0.0"
     inkscape:pagecheckerboard="0"
     showgrid="false"
     inkscape:zoom="0.29495939"
     inkscape:cx="427.17746"
     inkscape:cy="-128.8313"
     inkscape:window-width="1553"
     inkscape:window-height="870"
     inkscape:window-x="0"
     inkscape:window-y="23"
     inkscape:window-maximized="0"
     inkscape:current-layer="svg521"
     showguides="false"
     units="mm"
     inkscape:document-units="mm" /><path
     d="m 598.78118,-261.18766 -13.3555,138.3099 c 75.7842,6.76021 142.4569,52.802047 175.6224,121.2767574 h -86.6035 c -11.9567,0 -21.6505,9.6938 -21.6505,21.6521596 0,11.95673 9.6938,21.65053 21.6505,21.65053 h 102.1446 c 4.1023,16.89648 6.111,33.68615 6.111,51.07507 -49.7292,28.708433 -86.0149,75.997453 -100.877,131.460423 -14.8637,55.46653 -7.0835,114.55842 21.6291,164.2873 28.7098,49.72789 75.9975,86.0136 131.4618,100.87568 55.4652,14.86371 114.5649,7.08483 164.2967,-21.62781 15.05972,8.69462 28.59382,18.82796 41.17672,30.82949 l -51.07212,88.45897 c -5.9786,10.35668 -2.4305,23.59728 7.9233,29.57711 10.35702,5.9769 23.59992,2.42913 29.57842,-7.92625 l 43.3004,-74.99957 c 46.5963,68.675 49.8373,157.94389 8.3411,229.8177 -41.4971,71.87348 -120.42722,113.70207 -203.20112,107.68459 l 43.3014,-75.00087 c 5.9785,-10.35408 2.4308,-23.59566 -7.9246,-29.57418 -10.3554,-5.97983 -23.5973,-2.43206 -29.5755,7.92332 l -51.0725,88.46027 c -16.6838,-4.89624 -32.2279,-11.55096 -47.2861,-20.24526 0,-57.42009 -22.8101,-112.48897 -63.4119,-153.09374 -40.6032,-40.60316 -95.675,-63.41453 -153.0977,-63.41453 -57.421,0 -112.4889,22.80878 -153.0921,63.40933 -40.6044,40.60446 -63.4171,95.67625 -63.4171,153.09894 -15.0585,8.6943 -30.6023,15.34902 -47.2864,20.24526 l -51.0722,-88.46027 c -5.9785,-10.35538 -19.2201,-13.90315 -29.5755,-7.92332 -10.3554,5.97852 -13.9035,19.2201 -7.9249,29.57418 l 43.3017,75.00087 C 174.34988,877.23187 95.419767,835.40328 53.923917,763.5298 12.428057,691.65599 15.668737,602.3871 62.266647,533.7121 l 43.300423,74.99957 c 5.97983,10.35538 19.22011,13.90315 29.57679,7.92625 10.35412,-5.97983 13.90312,-19.22043 7.92492,-29.57711 L 91.996657,498.60184 c 12.582923,-12.00153 26.116983,-22.13487 41.175133,-30.82949 49.72789,28.71135 108.82369,36.49022 164.28759,21.63073 55.4669,-14.8611 102.7585,-51.14811 131.4699,-100.8786 28.7097,-49.72758 36.4912,-108.81525 21.6304,-164.27919 -14.8608,-55.46686 -51.1478,-102.75848 -100.8783,-131.468533 0,-17.38892 2.0084,-34.17859 6.111,-51.07507 h 102.1443 c 11.9567,0 21.6495,-9.6938 21.6495,-21.65053 0,-11.9583596 -9.6928,-21.6521596 -21.6495,-21.6521596 h -86.6032 c 33.1639,-68.4747104 99.8382,-114.5165474 175.6208,-121.2767574 l -11.4373,-138.3099"
     style="clip-rule:evenodd;fill:none;fill-rule:nonzero;stroke:#ff0000;stroke-width:13.5269px;stroke-linecap:round;stroke-linejoin:round"
     id="path4700-4" /><path
     d="m 879.19838,362.05982 c -21.6509,-37.49914 -43.303,-74.99276 -64.9526,-112.49319 -5.9798,-10.35538 -19.2201,-13.90315 -29.5768,-7.92463 -10.354,5.97821 -13.9031,19.22011 -7.9249,29.57549 21.6509,37.49914 43.303,74.99275 64.9539,112.49319 5.9785,10.35538 19.2201,13.90316 29.5755,7.92463 10.3553,-5.97853 13.9031,-19.22011 7.9249,-29.57549 z"
     style="clip-rule:evenodd;fill:none;fill-rule:nonzero;stroke:#000000;stroke-width:13.5269px;stroke-linecap:round;stroke-linejoin:round"
     id="path4696-0" /><path
     d="m 318.13248,249.56598 c -21.6505,37.50044 -43.3014,74.99405 -64.9522,112.49287 -5.9785,10.35538 -2.4308,23.59728 7.9233,29.57581 10.3567,5.9782 23.5986,2.43043 29.5771,-7.92495 21.6509,-37.50044 43.3014,-74.99536 64.9523,-112.49287 5.9785,-10.35538 2.4307,-23.59728 -7.9246,-29.57581 -10.3554,-5.9782 -23.5973,-2.43043 -29.5759,7.92495 z"
     style="clip-rule:evenodd;fill:none;fill-rule:nonzero;stroke:#000000;stroke-width:13.5269px;stroke-linecap:round;stroke-linejoin:round"
     id="path4698-7" /><path
     d="m 501.23678,791.70423 h 129.9048 c 11.958,0 21.6509,-9.69252 21.6509,-21.65087 0,-11.95803 -9.6929,-21.65086 -21.6509,-21.65086 h -129.9048 c -11.9584,0 -21.6509,9.69283 -21.6509,21.65086 0,11.95835 9.6925,21.65087 21.6509,21.65087 z"
     style="clip-rule:evenodd;fill:none;fill-rule:nonzero;stroke:#000000;stroke-width:13.5269px;stroke-linecap:round;stroke-linejoin:round"
     id="path4702-5" /><path
     d="M 133.17018,467.77235 349.67978,92.777727"
     style="clip-rule:evenodd;fill:none;fill-rule:nonzero;stroke:#000000;stroke-width:13.5269px;stroke-linecap:round;stroke-linejoin:round"
     id="path4704-7" /><path
     d="M 782.69858,92.777727 999.21078,467.77235"
     style="clip-rule:evenodd;fill:none;fill-rule:nonzero;stroke:#000000;stroke-width:13.5269px;stroke-linecap:round;stroke-linejoin:round"
     id="path4706-5" /><path
     d="m 349.67808,842.7767 h 433.0173"
     style="clip-rule:evenodd;fill:none;fill-rule:nonzero;stroke:#000000;stroke-width:13.5269px;stroke-linecap:round;stroke-linejoin:round"
     id="path4708-0" /></svg>
