<?xml version="1.0" encoding="UTF-8" standalone="no"?><!DOCTYPE svg PUBLIC "-//W3C//DTD SVG 1.1//EN" "http://www.w3.org/Graphics/SVG/1.1/DTD/svg11.dtd"><svg width="100%" height="100%" viewBox="0 0 8268 3544" version="1.1" xmlns="http://www.w3.org/2000/svg" xmlns:xlink="http://www.w3.org/1999/xlink" xml:space="preserve" xmlns:serif="http://www.serif.com/" style="fill-rule:evenodd;clip-rule:evenodd;stroke-linecap:round;stroke-linejoin:round;"><g id="Standard"><path d="M2665.61,1949.44c-66.696,-115.517 -133.396,-231.017 -200.088,-346.538c-18.421,-31.9 -59.208,-42.829 -91.112,-24.412c-31.896,18.416 -42.829,59.208 -24.413,91.108c66.696,115.517 133.396,231.017 200.092,346.538c18.417,31.9 59.208,42.829 91.108,24.412c31.9,-18.417 42.829,-59.208 24.413,-91.108Z" style="fill:none;fill-rule:nonzero;stroke:#000;stroke-width:41.67px;"/><path d="M937.233,1602.9c-66.695,115.521 -133.391,231.021 -200.087,346.537c-18.417,31.9 -7.488,72.692 24.408,91.109c31.904,18.416 72.696,7.487 91.113,-24.413c66.696,-115.521 133.391,-231.025 200.087,-346.537c18.417,-31.9 7.488,-72.692 -24.412,-91.109c-31.9,-18.416 -72.692,-7.487 -91.109,24.413Z" style="fill:none;fill-rule:nonzero;stroke:#000;stroke-width:41.67px;"/><path d="M1801.77,29.512l-41.142,426.067c233.455,20.825 438.842,162.658 541.009,373.596l-266.784,-0c-36.833,-0 -66.695,29.862 -66.695,66.7c-0,36.833 29.862,66.695 66.695,66.695l314.659,0c12.637,52.05 18.825,103.771 18.825,157.338c-153.192,88.437 -264.971,234.112 -310.754,404.967c-45.788,170.866 -21.821,352.9 66.629,506.091c88.441,153.188 234.112,264.967 404.971,310.75c170.862,45.788 352.92,21.825 506.12,-66.625c46.392,26.784 88.084,58 126.846,94.971l-157.329,272.5c-18.417,31.904 -7.487,72.692 24.408,91.113c31.905,18.412 72.7,7.483 91.117,-24.417l133.388,-231.038c143.541,211.555 153.525,486.55 25.695,707.959c-127.833,221.408 -370.979,350.262 -625.966,331.725l133.391,-231.042c18.417,-31.896 7.488,-72.687 -24.412,-91.104c-31.9,-18.421 -72.692,-7.492 -91.108,24.408l-157.33,272.504c-51.395,-15.083 -99.279,-35.583 -145.666,-62.366c-0,-176.884 -70.267,-346.525 -195.342,-471.609c-125.079,-125.079 -294.729,-195.35 -471.621,-195.35c-176.887,0 -346.525,70.263 -471.604,195.334c-125.083,125.083 -195.358,294.733 -195.358,471.625c-46.388,26.783 -94.271,47.283 -145.667,62.366l-157.329,-272.504c-18.417,-31.9 -59.208,-42.829 -91.108,-24.408c-31.9,18.417 -42.83,59.208 -24.413,91.104l133.392,231.042c-254.988,18.537 -498.134,-110.317 -625.963,-331.725c-127.829,-221.409 -117.846,-496.404 25.7,-707.959l133.388,231.038c18.421,31.9 59.208,42.829 91.112,24.417c31.896,-18.421 42.829,-59.209 24.413,-91.113l-157.329,-272.5c38.762,-36.971 80.454,-68.187 126.841,-94.971c153.188,88.446 335.234,112.409 506.092,66.634c170.867,-45.78 316.55,-157.563 404.996,-310.759c88.441,-153.187 112.412,-335.208 66.633,-506.066c-45.779,-170.867 -157.562,-316.55 -310.758,-404.992c-0,-53.567 6.187,-105.288 18.825,-157.338l314.658,0c36.833,0 66.692,-29.862 66.692,-66.695c-0,-36.838 -29.859,-66.7 -66.692,-66.7l-266.783,-0c102.162,-210.938 307.554,-352.771 541.004,-373.596l-35.233,-426.067" style="fill:none;fill-rule:nonzero;stroke:#f00;stroke-width:41.67px;"/><path d="M1501.29,3272.97l400.175,0c36.837,0 66.696,-29.858 66.696,-66.696c-0,-36.837 -29.859,-66.696 -66.696,-66.696l-400.175,0c-36.838,0 -66.696,29.859 -66.696,66.696c0,36.838 29.858,66.696 66.696,66.696Z" style="fill:none;fill-rule:nonzero;stroke:#000;stroke-width:41.67px;"/><path d="M367.452,2275.09l666.963,-1155.18" style="fill:none;fill-rule:nonzero;stroke:#000;stroke-width:41.67px;"/><path d="M2368.34,1119.91l666.971,1155.18" style="fill:none;fill-rule:nonzero;stroke:#000;stroke-width:41.67px;"/><path d="M1034.41,3430.3l1333.92,0" style="fill:none;fill-rule:nonzero;stroke:#000;stroke-width:41.67px;"/></g></svg>