<?xml version="1.0" encoding="utf-8"?>
<!-- Generator: Adobe Illustrator 14.0.0, SVG Export Plug-In . SVG Version: 6.00 Build 43363)  -->
<!DOCTYPE svg PUBLIC "-//W3C//DTD SVG 1.1//EN" "http://www.w3.org/Graphics/SVG/1.1/DTD/svg11.dtd">
<svg version="1.1" id="Layer_1" xmlns="http://www.w3.org/2000/svg" xmlns:xlink="http://www.w3.org/1999/xlink" x="0px" y="0px"
	 width="841.89px" height="595.279px" viewBox="0 0 841.89 595.279" enable-background="new 0 0 841.89 595.279"
	 xml:space="preserve">
<rect x="0" y="0" fill="none" stroke="#000000" width="841.89" height="595.279"/>
<g>
	<line fill="none" stroke="#000000" x1="144.316" y1="21.01" x2="697.573" y2="574.268"/>
	<line fill="none" stroke="#000000" x1="144.316" y1="574.267" x2="697.574" y2="21.011"/>
</g>
<path fill="none" stroke="#000000" d="M682.56,297.637c0,144.487-117.127,261.62-261.615,261.62
	c-144.489,0-261.615-117.133-261.615-261.62c0-144.483,117.126-261.615,261.615-261.615
	C565.433,36.022,682.56,153.154,682.56,297.637z"/>
<rect x="144.316" y="21.01" fill="none" stroke="#000000" width="553.257" height="553.258"/>
<g>
	<rect x="25.367" y="463.397" fill="none" stroke="#000000" width="106" height="106"/>
	<rect x="25.367" y="16.005" fill="none" stroke="#000000" width="106" height="106"/>
	<rect x="711.855" y="16.005" fill="none" stroke="#000000" width="106" height="106"/>
	<rect x="711.855" y="463.397" fill="none" stroke="#000000" width="106" height="106"/>
</g>
<path fill="none" stroke="#000000" d="M360.811,432.344c-0.073,31.31,141.333-35.333,137.333-8.666
	c-5.664,37.764-135.333,6-137.536-34.656c-63.024,60.366-49.961,121.132,39.235,92.656c72.62-23.184,113.894-46.569,118.09-5.758
	c4.199,40.812-47.858,58.875-4.198,98.349"/>
<ellipse fill="none" stroke="#000000" cx="420.945" cy="518.777" rx="58.769" ry="28.411"/>
<circle fill="none" stroke="#000000" cx="420.945" cy="371.811" r="44.658"/>
<g>
	<line fill="none" stroke="#000000" x1="187.044" y1="346.717" x2="187.044" y2="236.112"/>
	<line fill="none" stroke="#000000" x1="202.845" y1="346.717" x2="202.845" y2="236.112"/>
	<line fill="none" stroke="#000000" x1="218.645" y1="346.717" x2="218.645" y2="236.112"/>
	<line fill="none" stroke="#000000" x1="234.445" y1="346.717" x2="234.445" y2="236.112"/>
	<line fill="none" stroke="#000000" x1="250.245" y1="346.717" x2="250.245" y2="236.112"/>
	<line fill="none" stroke="#000000" x1="266.045" y1="346.717" x2="266.045" y2="236.112"/>
	<line fill="none" stroke="#000000" x1="281.846" y1="346.717" x2="281.846" y2="236.112"/>
	<line fill="none" stroke="#000000" x1="297.646" y1="346.717" x2="297.646" y2="236.112"/>
</g>
<g>
	<line fill="none" stroke="#000000" x1="32.463" y1="236.114" x2="143.068" y2="236.114"/>
	<line fill="none" stroke="#000000" x1="32.463" y1="251.914" x2="143.068" y2="251.914"/>
	<line fill="none" stroke="#000000" x1="32.463" y1="267.714" x2="143.068" y2="267.714"/>
	<line fill="none" stroke="#000000" x1="32.463" y1="283.514" x2="143.068" y2="283.514"/>
	<line fill="none" stroke="#000000" x1="32.463" y1="299.314" x2="143.068" y2="299.314"/>
	<line fill="none" stroke="#000000" x1="32.463" y1="315.114" x2="143.068" y2="315.114"/>
	<line fill="none" stroke="#000000" x1="32.463" y1="330.915" x2="143.068" y2="330.915"/>
	<line fill="none" stroke="#000000" x1="32.463" y1="346.715" x2="143.068" y2="346.715"/>
</g>
<g>
	<g>
		<line fill="none" stroke="#000000" x1="712.961" y1="350.088" x2="712.961" y2="245.191"/>
		<line fill="none" stroke="#000000" x1="727.947" y1="350.088" x2="727.947" y2="245.191"/>
		<line fill="none" stroke="#000000" x1="742.931" y1="350.088" x2="742.931" y2="245.191"/>
		<line fill="none" stroke="#000000" x1="757.915" y1="350.088" x2="757.915" y2="245.191"/>
		<line fill="none" stroke="#000000" x1="772.901" y1="350.088" x2="772.901" y2="245.191"/>
		<line fill="none" stroke="#000000" x1="787.885" y1="350.088" x2="787.885" y2="245.191"/>
		<line fill="none" stroke="#000000" x1="802.87" y1="350.088" x2="802.87" y2="245.191"/>
		<line fill="none" stroke="#000000" x1="817.855" y1="350.088" x2="817.855" y2="245.191"/>
	</g>
	<g>
		<line fill="none" stroke="#000000" x1="712.961" y1="245.193" x2="817.859" y2="245.193"/>
		<line fill="none" stroke="#000000" x1="712.961" y1="260.178" x2="817.859" y2="260.178"/>
		<line fill="none" stroke="#000000" x1="712.961" y1="275.163" x2="817.859" y2="275.163"/>
		<line fill="none" stroke="#000000" x1="712.961" y1="290.147" x2="817.859" y2="290.147"/>
		<line fill="none" stroke="#000000" x1="712.961" y1="305.132" x2="817.859" y2="305.132"/>
		<line fill="none" stroke="#000000" x1="712.961" y1="320.117" x2="817.859" y2="320.117"/>
		<line fill="none" stroke="#000000" x1="712.961" y1="335.102" x2="817.859" y2="335.102"/>
		<line fill="none" stroke="#000000" x1="712.961" y1="350.086" x2="817.859" y2="350.086"/>
	</g>
</g>
<g>
	<g>
		<line fill="none" stroke="#000000" x1="591.953" y1="371.812" x2="517.781" y2="297.639"/>
		<line fill="none" stroke="#000000" x1="602.55" y1="361.216" x2="528.377" y2="287.043"/>
		<line fill="none" stroke="#000000" x1="613.146" y1="350.62" x2="538.972" y2="276.447"/>
		<line fill="none" stroke="#000000" x1="623.74" y1="340.024" x2="549.568" y2="265.851"/>
		<line fill="none" stroke="#000000" x1="634.337" y1="329.428" x2="560.164" y2="255.255"/>
		<line fill="none" stroke="#000000" x1="644.933" y1="318.833" x2="570.76" y2="244.66"/>
		<line fill="none" stroke="#000000" x1="655.529" y1="308.236" x2="581.356" y2="234.063"/>
		<line fill="none" stroke="#000000" x1="666.124" y1="297.641" x2="591.951" y2="223.468"/>
	</g>
	<g>
		<line fill="none" stroke="#000000" x1="517.781" y1="297.64" x2="591.955" y2="223.467"/>
		<line fill="none" stroke="#000000" x1="528.378" y1="308.236" x2="602.552" y2="234.062"/>
		<line fill="none" stroke="#000000" x1="538.974" y1="318.832" x2="613.148" y2="244.658"/>
		<line fill="none" stroke="#000000" x1="549.57" y1="329.427" x2="623.743" y2="255.254"/>
		<line fill="none" stroke="#000000" x1="560.165" y1="340.023" x2="634.338" y2="265.849"/>
		<line fill="none" stroke="#000000" x1="570.761" y1="350.619" x2="644.935" y2="276.446"/>
		<line fill="none" stroke="#000000" x1="581.358" y1="361.216" x2="655.531" y2="287.042"/>
		<line fill="none" stroke="#000000" x1="591.952" y1="371.81" x2="666.126" y2="297.636"/>
	</g>
</g>
<g>
	<path fill="none" stroke="#000000" d="M50.515,57.154h-9.647c-0.972,0-1.728-0.828-1.728-1.728V33.793
		c0-1.152,0.864-1.728,1.728-1.728s1.692,0.576,1.692,1.728v19.941h7.955c1.152,0,1.728,0.864,1.728,1.728
		C52.242,56.29,51.667,57.154,50.515,57.154z"/>
	<path fill="none" stroke="#000000" d="M57.968,57.334c-0.864,0-1.728-0.54-1.728-1.692V33.793c0-1.152,0.864-1.728,1.728-1.728
		c0.864,0,1.728,0.576,1.728,1.728v21.849C59.695,56.794,58.831,57.334,57.968,57.334z"/>
	<path fill="none" stroke="#000000" d="M78.126,57.334H77.73c-0.468,0-1.368-0.108-1.944-1.44L68.911,40.38v15.262
		c0,1.152-0.828,1.692-1.692,1.692s-1.764-0.54-1.764-1.692V33.865c0-0.972,0.684-1.8,1.835-1.8h0.396c0.432,0,1.296,0,1.836,1.26
		l6.875,15.514V33.793c0-1.152,0.828-1.728,1.692-1.728s1.764,0.576,1.764,1.728v21.849C79.854,56.542,79.098,57.334,78.126,57.334z
		"/>
	<path fill="none" stroke="#000000" d="M97.926,57.334c-0.576,0-1.188-0.252-1.512-0.936l-5.075-10.475l-2.556,3.708v6.011
		c0,1.152-0.864,1.692-1.728,1.692s-1.728-0.54-1.728-1.692V33.793c0-1.152,0.864-1.728,1.728-1.728s1.728,0.576,1.728,1.728v9.683
		l7.235-10.655c0.36-0.54,0.9-0.756,1.368-0.756c1.044,0,1.8,0.756,1.8,1.728c0,0.36-0.108,0.684-0.288,0.972l-5.328,7.847
		l5.976,12.274c0.108,0.288,0.18,0.54,0.18,0.792C99.725,56.578,98.969,57.334,97.926,57.334z"/>
	<path fill="none" stroke="#000000" d="M109.554,57.334h-0.36c-3.779,0-7.019-2.556-7.019-6.983c0-1.152,0.864-1.728,1.728-1.728
		c0.864,0,1.728,0.576,1.728,1.728c0,2.304,1.512,3.6,3.563,3.6h0.36c2.124,0,3.708-1.152,3.708-3.275
		c0-5.04-10.871-5.076-10.871-11.591v-0.648c0-3.887,3.564-6.371,6.839-6.371h0.324c3.456,0,6.803,1.836,6.803,5.507v0.216
		c0,0.972-0.684,1.62-1.656,1.62c-1.008,0-1.583-0.612-1.8-1.584c-0.432-1.944-1.439-2.34-3.347-2.34h-0.324
		c-1.584,0-3.383,1.008-3.383,2.772v0.72c0,3.456,10.871,4.248,10.871,11.699C116.718,54.742,113.586,57.334,109.554,57.334z"/>
	<path fill="none" stroke="#000000" d="M46.052,100.534h-0.36c-3.851,0-7.019-2.952-7.019-6.875V82.14
		c0-3.887,3.168-6.875,7.055-6.875h0.324c3.887,0,7.019,2.988,7.019,6.875v11.519C53.071,97.582,49.939,100.534,46.052,100.534z
		 M49.615,82.14c0-2.016-1.584-3.456-3.563-3.456h-0.36c-1.979,0-3.563,1.476-3.563,3.456v11.519c0,2.016,1.584,3.492,3.563,3.492
		h0.36c1.979,0,3.563-1.476,3.563-3.492V82.14z"/>
	<path fill="none" stroke="#000000" d="M65.203,100.354H59.84c-0.972,0-1.728-0.828-1.728-1.728V77.209
		c0-0.9,0.756-1.728,1.728-1.728h5.363c3.924,0,6.731,2.844,6.731,6.695c0,2.124-0.864,4.104-2.556,5.292
		c1.691,1.26,2.843,3.383,2.843,5.543v0.324C72.222,97.222,69.091,100.354,65.203,100.354z M65.203,78.901h-3.635v6.947h3.635
		c1.872,0,3.276-1.512,3.276-3.671C68.479,80.16,67.219,78.901,65.203,78.901z M68.766,93.01c0-2.052-1.656-3.743-3.563-3.743
		h-3.635v7.667h3.635c2.016,0,3.563-1.656,3.563-3.6V93.01z"/>
	<path fill="none" stroke="#000000" d="M89.467,100.354H78.524c-0.9,0-1.728-0.828-1.728-1.728V77.209
		c0-0.9,0.828-1.728,1.728-1.728h10.943c1.152,0,1.728,0.864,1.728,1.728c0,0.828-0.576,1.692-1.728,1.692h-9.215v6.947h6.263
		c1.152,0,1.728,0.828,1.728,1.692s-0.576,1.728-1.728,1.728h-6.263v7.667h9.215c1.152,0,1.728,0.864,1.728,1.728
		C91.194,99.49,90.618,100.354,89.467,100.354z"/>
	<path fill="none" stroke="#000000" d="M107.538,100.534h-0.396c-0.468,0-1.368-0.108-1.944-1.44L98.323,83.58v15.262
		c0,1.152-0.828,1.692-1.692,1.692s-1.764-0.54-1.764-1.692V77.065c0-0.972,0.684-1.8,1.835-1.8h0.396c0.432,0,1.296,0,1.836,1.26
		l6.875,15.514V76.993c0-1.152,0.828-1.728,1.692-1.728s1.764,0.576,1.764,1.728v21.849
		C109.266,99.742,108.51,100.534,107.538,100.534z"/>
</g>
<g>
	<path fill="none" stroke="#000000" d="M731.388,53.088h-4.911c-0.782,0-1.503-0.72-1.503-1.501V32.967
		c0-0.782,0.721-1.501,1.503-1.501h4.911c3.38,0,6.103,2.44,6.103,6.102v9.418C737.49,50.647,734.768,53.088,731.388,53.088z
		 M734.488,37.568c0-1.722-1.44-3.129-3.1-3.129h-3.41v15.677h3.41c1.659,0,3.1-1.439,3.1-3.129V37.568z"/>
	<path fill="none" stroke="#000000" d="M743.656,53.244c-0.751,0-1.502-0.469-1.502-1.47V32.78c0-1.001,0.751-1.501,1.502-1.501
		s1.502,0.5,1.502,1.501v18.994C745.158,52.775,744.407,53.244,743.656,53.244z"/>
	<path fill="none" stroke="#000000" d="M761.181,53.244h-0.345c-0.407,0-1.188-0.093-1.689-1.251l-5.977-13.486v13.267
		c0,1.001-0.72,1.47-1.472,1.47c-0.75,0-1.532-0.469-1.532-1.47V32.843c0-0.845,0.595-1.564,1.596-1.564h0.345
		c0.375,0,1.126,0,1.595,1.095l5.978,13.486V32.78c0-1.001,0.719-1.501,1.47-1.501c0.752,0,1.534,0.5,1.534,1.501v18.994
		C762.683,52.555,762.026,53.244,761.181,53.244z"/>
	<path fill="none" stroke="#000000" d="M788.845,53.244c-0.595,0-1.189-0.312-1.439-1.063l-1.283-4.13h-6.947l-1.251,4.13
		c-0.219,0.751-0.876,1.063-1.47,1.063c-0.908,0-1.535-0.594-1.535-1.377c0-0.125,0.032-0.281,0.063-0.5l5.945-18.9
		c0.25-0.783,1.002-1.189,1.721-1.189c0.751,0,1.471,0.344,1.722,1.189l5.944,18.9c0.031,0.219,0.062,0.375,0.062,0.47
		C790.377,52.681,789.752,53.244,788.845,53.244z M782.649,36.785l-2.534,8.292h5.068L782.649,36.785z"/>
	<path fill="none" stroke="#000000" d="M803.24,48.55h-1.063v3.224c0,1.001-0.72,1.47-1.472,1.47c-0.75,0-1.532-0.469-1.532-1.47
		V48.55h-5.288c-1.032,0-1.597-0.845-1.597-1.721c0-0.282,0.063-0.531,0.156-0.751l6.008-13.893
		c0.282-0.625,0.783-0.907,1.314-0.907c0.971,0,1.564,0.657,1.564,1.501c0,0.219,0,0.407-0.125,0.625l-5.288,12.173h3.255v-2.16
		c0-1,0.751-1.501,1.502-1.501s1.502,0.501,1.502,1.501v2.16h1.063c1.001,0,1.502,0.751,1.502,1.471
		C804.742,47.8,804.241,48.55,803.24,48.55z"/>
</g>
<g>
	<path fill="none" stroke="#000000" d="M348.08,83.832h-1.632v4.944c0,1.536-1.104,2.257-2.257,2.257
		c-1.151,0-2.352-0.721-2.352-2.257v-4.944h-8.113c-1.584,0-2.448-1.296-2.448-2.64c0-0.433,0.097-0.816,0.24-1.152l9.217-21.313
		c0.433-0.961,1.2-1.393,2.017-1.393c1.488,0,2.4,1.008,2.4,2.305c0,0.336,0,0.624-0.192,0.96l-8.112,18.673h4.992V75.96
		c0-1.536,1.152-2.305,2.304-2.305c1.152,0,2.305,0.769,2.305,2.305v3.312h1.632c1.536,0,2.305,1.152,2.305,2.257
		C350.385,82.681,349.616,83.832,348.08,83.832z"/>
	<path fill="none" stroke="#000000" d="M363.296,91.033h-0.48c-4.464,0-8.064-3.505-8.064-8.017V78.84
		c0-2.256,1.104-4.272,2.592-5.761c-1.487-1.487-2.592-3.456-2.592-5.712v-2.017c0-4.464,3.601-8.017,8.064-8.017h0.48
		c4.464,0,8.064,3.553,8.064,8.017v2.017c0,2.256-1.008,4.225-2.496,5.712c1.488,1.488,2.496,3.505,2.496,5.761v4.177
		C371.361,87.529,367.76,91.033,363.296,91.033z M366.752,65.351c0-1.872-1.536-3.456-3.456-3.456h-0.48
		c-1.92,0-3.456,1.584-3.456,3.456v2.017c0,1.92,1.536,3.408,3.456,3.408h0.48c1.92,0,3.456-1.488,3.456-3.408V65.351z
		 M366.752,78.84c0-1.92-1.536-3.504-3.456-3.504h-0.48c-1.92,0-3.456,1.584-3.456,3.504v4.225c0,1.872,1.536,3.456,3.456,3.456
		h0.48c1.92,0,3.456-1.584,3.456-3.456V78.84z"/>
	<path fill="none" stroke="#000000" d="M399.968,91.033h-0.336c-0.769,0-2.4-0.288-3.408-1.2v8.977c0,1.536-1.152,2.305-2.305,2.305
		c-1.151,0-2.304-0.769-2.304-2.305V69.671c0-1.488,1.152-2.304,2.304-2.304c1.345,0,1.969,0.479,2.305,1.248
		c1.008-1.104,2.64-1.248,3.408-1.248h0.336c4.416,0,7.969,3.552,7.969,7.921v7.872C407.937,87.625,404.384,91.033,399.968,91.033z
		 M403.328,75.288c0-1.873-1.488-3.36-3.36-3.36h-0.384c-1.872,0-3.36,1.632-3.36,3.36v7.872c0,1.872,1.488,3.36,3.36,3.36h0.384
		c1.872,0,3.36-1.488,3.36-3.36V75.288z"/>
	<path fill="none" stroke="#000000" d="M421.808,90.889c-3.648,0-6.529-2.88-6.529-6.528V72.072h-0.768
		c-1.536,0-2.305-1.152-2.305-2.304c0-1.104,0.769-2.257,2.305-2.257h0.768v-7.872c0-1.536,1.152-2.305,2.257-2.305
		c1.151,0,2.352,0.769,2.352,2.305v7.872h1.681c1.536,0,2.304,1.152,2.304,2.257c0,1.151-0.768,2.304-2.304,2.304h-1.681v12.289
		c0,0.769,0.769,2.017,1.921,2.017c1.536,0,2.304,1.151,2.304,2.256C424.112,89.785,423.344,90.889,421.808,90.889z"/>
	<path fill="none" stroke="#000000" d="M362.346,134.173h-0.36c-3.6,0-6.155-2.627-6.155-5.651c0-1.151,0.864-1.728,1.729-1.728
		c0.863,0,1.728,0.576,1.728,1.728c0,1.26,1.296,2.269,2.699,2.269h0.36c1.439,0,2.699-1.225,2.699-2.628v-2.34
		c0-3.132-1.115-3.456-3.563-3.456c-1.26,0-1.835-0.863-1.835-1.728c0-0.828,0.575-1.691,1.835-1.691
		c1.872,0,3.563-0.108,3.563-3.24v-0.827c0-1.692-1.296-2.556-2.699-2.556c-1.404,0-2.735,0.575-2.735,2.123
		c0,1.152-0.864,1.764-1.729,1.764c-0.863,0-1.728-0.611-1.728-1.764c0-3.743,3.132-5.543,6.191-5.543
		c3.096,0,6.155,2.052,6.155,5.976v0.827c0,2.448-0.684,3.96-1.656,4.968c1.116,1.152,1.656,2.88,1.656,5.147v2.34
		C368.501,131.546,365.873,134.173,362.346,134.173z"/>
	<path fill="none" stroke="#000000" d="M383.261,115.636c-0.828,0-1.548-0.468-1.764-1.477c-0.216-1.151-1.296-1.835-2.592-1.835
		h-0.36c-1.403,0-2.592,1.224-2.592,2.627v3.672c0.576-0.468,1.62-0.828,2.592-0.828h0.36c3.348,0,6.011,2.7,6.011,6.048v4.319
		c0,3.384-2.663,6.011-6.011,6.011h-0.36c-3.348,0-6.047-2.627-6.047-6.011v-13.211c0-3.312,2.699-6.047,6.047-6.047h0.36
		c4.499,0,6.047,3.527,6.047,5.111C384.952,115.06,384.125,115.636,383.261,115.636z M381.461,123.843
		c0-1.44-1.116-2.628-2.556-2.628h-0.36c-1.439,0-2.592,1.188-2.592,2.628v4.319c0,1.403,1.152,2.628,2.592,2.628h0.36
		c1.439,0,2.556-1.225,2.556-2.628V123.843z"/>
	<path fill="none" stroke="#000000" d="M406.409,134.173h-0.252c-0.576,0-1.8-0.216-2.556-0.899v6.731
		c0,1.151-0.864,1.728-1.728,1.728c-0.864,0-1.729-0.576-1.729-1.728v-21.85c0-1.116,0.864-1.728,1.729-1.728
		c1.008,0,1.476,0.359,1.728,0.936c0.756-0.828,1.979-0.936,2.556-0.936h0.252c3.312,0,5.976,2.663,5.976,5.938v5.903
		C412.385,131.617,409.721,134.173,406.409,134.173z M408.929,122.366c0-1.403-1.116-2.52-2.52-2.52h-0.288
		c-1.404,0-2.52,1.224-2.52,2.52v5.903c0,1.404,1.115,2.521,2.52,2.521h0.288c1.403,0,2.52-1.116,2.52-2.521V122.366z"/>
	<path fill="none" stroke="#000000" d="M422.789,134.066c-2.735,0-4.896-2.16-4.896-4.896v-9.215h-0.576
		c-1.151,0-1.728-0.864-1.728-1.728c0-0.828,0.576-1.692,1.728-1.692h0.576v-5.903c0-1.151,0.864-1.728,1.692-1.728
		c0.863,0,1.764,0.576,1.764,1.728v5.903h1.26c1.151,0,1.728,0.864,1.728,1.692c0,0.863-0.576,1.728-1.728,1.728h-1.26v9.215
		c0,0.576,0.575,1.512,1.439,1.512c1.152,0,1.728,0.864,1.728,1.691C424.517,133.238,423.942,134.066,422.789,134.066z"/>
	<path fill="none" stroke="#000000" d="M386.431,162.793h-6.528c-0.768,0-1.2-0.744-1.2-1.44c0-0.312,0.072-0.552,0.192-0.744
		l5.664-9.072c0.312-0.504,0.336-0.912,0.336-1.272v-0.288c0-0.936-0.768-1.632-1.752-1.632h-0.144c-0.96,0-1.729,0.696-1.729,1.632
		v0.168c0,0.769-0.576,1.177-1.152,1.177s-1.151-0.408-1.151-1.177v-0.168c0-2.231,1.823-3.912,4.032-3.912h0.144
		c2.185,0,4.057,1.536,4.057,3.912v0.408c0,0.984-0.552,2.04-0.769,2.4l-4.729,7.729h4.729c0.769,0,1.152,0.576,1.152,1.128
		C387.583,162.217,387.199,162.793,386.431,162.793z"/>
	<path fill="none" stroke="#000000" d="M397.928,159.313h-0.816v2.473c0,0.768-0.552,1.128-1.128,1.128s-1.177-0.36-1.177-1.128
		v-2.473h-4.056c-0.792,0-1.225-0.647-1.225-1.32c0-0.216,0.048-0.407,0.12-0.576l4.608-10.656c0.216-0.48,0.601-0.696,1.008-0.696
		c0.744,0,1.2,0.504,1.2,1.152c0,0.168,0,0.312-0.096,0.479l-4.057,9.337h2.496v-1.656c0-0.768,0.576-1.151,1.152-1.151
		s1.152,0.384,1.152,1.151v1.656h0.816c0.768,0,1.151,0.576,1.151,1.128C399.079,158.737,398.696,159.313,397.928,159.313z"/>
	<path fill="none" stroke="#000000" d="M412.856,162.913h-0.169c-0.384,0-1.199-0.145-1.704-0.601v4.489
		c0,0.768-0.575,1.151-1.151,1.151s-1.152-0.384-1.152-1.151v-14.569c0-0.744,0.576-1.152,1.152-1.152
		c0.672,0,0.983,0.24,1.151,0.624c0.505-0.552,1.32-0.624,1.704-0.624h0.169c2.208,0,3.984,1.776,3.984,3.96v3.937
		C416.84,161.209,415.064,162.913,412.856,162.913z M414.535,155.04c0-0.936-0.744-1.68-1.68-1.68h-0.192
		c-0.937,0-1.681,0.815-1.681,1.68v3.937c0,0.937,0.744,1.681,1.681,1.681h0.192c0.936,0,1.68-0.744,1.68-1.681V155.04z"/>
	<path fill="none" stroke="#000000" d="M423.775,162.841c-1.824,0-3.264-1.44-3.264-3.264v-6.145h-0.385
		c-0.768,0-1.151-0.576-1.151-1.152c0-0.553,0.384-1.128,1.151-1.128h0.385v-3.937c0-0.769,0.576-1.152,1.128-1.152
		c0.576,0,1.176,0.384,1.176,1.152v3.937h0.84c0.769,0,1.152,0.575,1.152,1.128c0,0.576-0.384,1.152-1.152,1.152h-0.84v6.145
		c0,0.384,0.384,1.008,0.96,1.008c0.769,0,1.152,0.576,1.152,1.128C424.927,162.289,424.543,162.841,423.775,162.841z"/>
	<path fill="none" stroke="#000000" d="M391.889,187.993h-5.711c-0.672,0-1.051-0.651-1.051-1.26c0-0.272,0.063-0.483,0.168-0.651
		l4.955-7.936c0.273-0.441,0.295-0.799,0.295-1.113v-0.252c0-0.818-0.672-1.428-1.533-1.428h-0.126c-0.84,0-1.512,0.609-1.512,1.428
		v0.146c0,0.672-0.504,1.029-1.008,1.029s-1.008-0.357-1.008-1.029v-0.146c0-1.953,1.596-3.422,3.527-3.422h0.126
		c1.91,0,3.549,1.344,3.549,3.422v0.357c0,0.86-0.483,1.784-0.672,2.1l-4.137,6.76h4.137c0.672,0,1.008,0.504,1.008,0.987
		C392.897,187.49,392.561,187.993,391.889,187.993z"/>
	<path fill="none" stroke="#000000" d="M399.469,188.098c-0.504,0-1.008-0.314-1.008-0.986v-10.688l-0.818,1.155
		c-0.23,0.315-0.482,0.44-0.798,0.44c-0.567,0-1.071-0.44-1.071-1.008c0-0.209,0.063-0.42,0.211-0.608l1.868-2.54
		c0.356-0.483,0.735-0.504,1.008-0.504h0.798c0.525,0,0.818,0.482,0.818,1.008v12.744
		C400.477,187.783,399.973,188.098,399.469,188.098z"/>
	<path fill="none" stroke="#000000" d="M414.463,188.098h-0.146c-0.336,0-1.051-0.125-1.491-0.524v3.927
		c0,0.672-0.504,1.008-1.008,1.008s-1.008-0.336-1.008-1.008v-12.745c0-0.651,0.504-1.008,1.008-1.008
		c0.588,0,0.86,0.21,1.008,0.546c0.44-0.482,1.155-0.546,1.491-0.546h0.146c1.932,0,3.485,1.554,3.485,3.464v3.443
		C417.948,186.608,416.395,188.098,414.463,188.098z M415.933,181.211c0-0.818-0.651-1.469-1.47-1.469h-0.168
		c-0.818,0-1.47,0.713-1.47,1.469v3.443c0,0.819,0.651,1.471,1.47,1.471h0.168c0.818,0,1.47-0.651,1.47-1.471V181.211z"/>
	<path fill="none" stroke="#000000" d="M424.018,188.035c-1.596,0-2.855-1.26-2.855-2.855v-5.375h-0.336
		c-0.672,0-1.008-0.504-1.008-1.008c0-0.482,0.336-0.986,1.008-0.986h0.336v-3.443c0-0.672,0.504-1.008,0.986-1.008
		c0.504,0,1.029,0.336,1.029,1.008v3.443h0.734c0.672,0,1.008,0.504,1.008,0.986c0,0.504-0.336,1.008-1.008,1.008h-0.734v5.375
		c0,0.336,0.336,0.882,0.84,0.882c0.672,0,1.008,0.504,1.008,0.987C425.026,187.553,424.69,188.035,424.018,188.035z"/>
	<path fill="none" stroke="#000000" d="M394.963,209.684c-0.433,0-0.864-0.27-0.864-0.846v-9.165l-0.702,0.99
		c-0.198,0.271-0.414,0.378-0.685,0.378c-0.486,0-0.918-0.378-0.918-0.864c0-0.18,0.054-0.36,0.18-0.522l1.603-2.178
		c0.307-0.414,0.63-0.433,0.864-0.433h0.685c0.45,0,0.702,0.414,0.702,0.864v10.93C395.827,209.414,395.395,209.684,394.963,209.684
		z"/>
	<path fill="none" stroke="#000000" d="M402.324,209.684h-0.181c-1.674,0-3.024-1.314-3.024-3.007v-1.566
		c0-0.847,0.414-1.603,0.973-2.16c-0.559-0.559-0.973-1.297-0.973-2.144v-0.756c0-1.675,1.351-3.007,3.024-3.007h0.181
		c1.674,0,3.024,1.332,3.024,3.007v0.756c0,0.847-0.378,1.585-0.936,2.144c0.558,0.558,0.936,1.313,0.936,2.16v1.566
		C405.349,208.369,403.998,209.684,402.324,209.684z M403.62,200.051c0-0.702-0.576-1.296-1.296-1.296h-0.181
		c-0.72,0-1.296,0.594-1.296,1.296v0.756c0,0.721,0.576,1.279,1.296,1.279h0.181c0.72,0,1.296-0.559,1.296-1.279V200.051z
		 M403.62,205.111c0-0.72-0.576-1.314-1.296-1.314h-0.181c-0.72,0-1.296,0.595-1.296,1.314v1.585c0,0.702,0.576,1.296,1.296,1.296
		h0.181c0.72,0,1.296-0.594,1.296-1.296V205.111z"/>
	<path fill="none" stroke="#000000" d="M416.075,209.684h-0.126c-0.288,0-0.9-0.107-1.278-0.45v3.367
		c0,0.576-0.432,0.864-0.864,0.864c-0.432,0-0.864-0.288-0.864-0.864v-10.929c0-0.559,0.433-0.865,0.864-0.865
		c0.504,0,0.738,0.181,0.864,0.469c0.378-0.414,0.99-0.469,1.278-0.469h0.126c1.657,0,2.989,1.333,2.989,2.972v2.952
		C419.065,208.406,417.733,209.684,416.075,209.684z M417.336,203.779c0-0.702-0.559-1.261-1.261-1.261h-0.144
		c-0.702,0-1.261,0.612-1.261,1.261v2.952c0,0.703,0.559,1.261,1.261,1.261h0.144c0.702,0,1.261-0.558,1.261-1.261V203.779z"/>
	<path fill="none" stroke="#000000" d="M424.265,209.63c-1.368,0-2.448-1.08-2.448-2.449v-4.609h-0.288
		c-0.576,0-0.864-0.432-0.864-0.864c0-0.414,0.288-0.846,0.864-0.846h0.288v-2.953c0-0.576,0.432-0.864,0.846-0.864
		c0.433,0,0.883,0.288,0.883,0.864v2.953h0.63c0.576,0,0.864,0.432,0.864,0.846c0,0.433-0.288,0.864-0.864,0.864h-0.63v4.609
		c0,0.288,0.288,0.757,0.72,0.757c0.576,0,0.864,0.432,0.864,0.846C425.129,209.216,424.841,209.63,424.265,209.63z"/>
	<path fill="none" stroke="#000000" d="M401.692,226.464c-0.336,0-0.673-0.21-0.673-0.658v-7.13l-0.546,0.77
		c-0.154,0.211-0.322,0.295-0.532,0.295c-0.378,0-0.715-0.295-0.715-0.673c0-0.14,0.042-0.28,0.141-0.406l1.246-1.694
		c0.238-0.322,0.49-0.337,0.673-0.337h0.532c0.35,0,0.546,0.322,0.546,0.673v8.503C402.364,226.254,402.028,226.464,401.692,226.464
		z"/>
	<path fill="none" stroke="#000000" d="M409.518,224.363h-0.476v1.443c0,0.448-0.322,0.658-0.659,0.658
		c-0.336,0-0.686-0.21-0.686-0.658v-1.443h-2.367c-0.463,0-0.715-0.378-0.715-0.771c0-0.126,0.028-0.238,0.07-0.336l2.689-6.22
		c0.126-0.28,0.35-0.406,0.588-0.406c0.435,0,0.7,0.295,0.7,0.673c0,0.098,0,0.182-0.056,0.28l-2.367,5.448h1.457v-0.966
		c0-0.448,0.336-0.673,0.672-0.673s0.673,0.225,0.673,0.673v0.966h0.476c0.448,0,0.673,0.337,0.673,0.659
		C410.191,224.027,409.966,224.363,409.518,224.363z"/>
	<path fill="none" stroke="#000000" d="M418.225,226.464h-0.098c-0.225,0-0.701-0.084-0.995-0.351v2.619
		c0,0.448-0.336,0.673-0.672,0.673c-0.337,0-0.673-0.225-0.673-0.673v-8.502c0-0.435,0.336-0.673,0.673-0.673
		c0.392,0,0.574,0.141,0.672,0.364c0.294-0.322,0.771-0.364,0.995-0.364h0.098c1.289,0,2.325,1.037,2.325,2.312v2.297
		C420.55,225.469,419.514,226.464,418.225,226.464z M419.205,221.869c0-0.546-0.435-0.98-0.98-0.98h-0.112
		c-0.546,0-0.98,0.477-0.98,0.98v2.297c0,0.547,0.435,0.98,0.98,0.98h0.112c0.546,0,0.98-0.434,0.98-0.98V221.869z"/>
	<path fill="none" stroke="#000000" d="M424.594,226.422c-1.064,0-1.904-0.841-1.904-1.905v-3.586h-0.225
		c-0.448,0-0.672-0.336-0.672-0.673c0-0.321,0.224-0.658,0.672-0.658h0.225v-2.297c0-0.448,0.336-0.673,0.658-0.673
		c0.336,0,0.687,0.225,0.687,0.673v2.297h0.49c0.448,0,0.672,0.337,0.672,0.658c0,0.337-0.224,0.673-0.672,0.673h-0.49v3.586
		c0,0.224,0.224,0.588,0.56,0.588c0.448,0,0.673,0.337,0.673,0.659C425.267,226.1,425.042,226.422,424.594,226.422z"/>
	<path fill="none" stroke="#000000" d="M405.172,240.853c-0.288,0-0.575-0.18-0.575-0.563v-6.104l-0.468,0.659
		c-0.132,0.181-0.276,0.252-0.456,0.252c-0.324,0-0.611-0.252-0.611-0.575c0-0.12,0.035-0.24,0.119-0.348l1.067-1.451
		c0.204-0.276,0.42-0.288,0.576-0.288h0.456c0.3,0,0.468,0.275,0.468,0.575v7.28C405.748,240.673,405.46,240.853,405.172,240.853z"
		/>
	<path fill="none" stroke="#000000" d="M411.688,240.793h-3.263c-0.384,0-0.6-0.372-0.6-0.72c0-0.156,0.036-0.275,0.096-0.372
		l2.831-4.533c0.156-0.252,0.168-0.456,0.168-0.636v-0.144c0-0.468-0.384-0.815-0.876-0.815h-0.071c-0.48,0-0.864,0.348-0.864,0.815
		v0.084c0,0.384-0.287,0.588-0.575,0.588s-0.576-0.204-0.576-0.588v-0.084c0-1.115,0.912-1.955,2.016-1.955h0.071
		c1.092,0,2.027,0.768,2.027,1.955v0.204c0,0.491-0.276,1.019-0.384,1.199l-2.363,3.861h2.363c0.384,0,0.575,0.288,0.575,0.563
		C412.263,240.505,412.072,240.793,411.688,240.793z"/>
	<path fill="none" stroke="#000000" d="M419.295,240.853h-0.084c-0.191,0-0.6-0.071-0.852-0.3v2.243
		c0,0.384-0.287,0.575-0.575,0.575s-0.576-0.191-0.576-0.575v-7.28c0-0.371,0.288-0.575,0.576-0.575c0.336,0,0.491,0.12,0.575,0.312
		c0.252-0.275,0.66-0.312,0.852-0.312h0.084c1.104,0,1.991,0.888,1.991,1.979v1.967
		C421.286,240.001,420.399,240.853,419.295,240.853z M420.135,236.919c0-0.468-0.372-0.84-0.84-0.84h-0.096
		c-0.468,0-0.84,0.408-0.84,0.84v1.967c0,0.468,0.372,0.84,0.84,0.84h0.096c0.468,0,0.84-0.372,0.84-0.84V236.919z"/>
	<path fill="none" stroke="#000000" d="M424.756,240.818c-0.912,0-1.631-0.72-1.631-1.632v-3.07h-0.192
		c-0.384,0-0.575-0.287-0.575-0.575c0-0.276,0.191-0.563,0.575-0.563h0.192v-1.968c0-0.384,0.287-0.575,0.563-0.575
		c0.288,0,0.588,0.191,0.588,0.575v1.968h0.419c0.384,0,0.576,0.287,0.576,0.563c0,0.288-0.192,0.575-0.576,0.575h-0.419v3.07
		c0,0.192,0.191,0.504,0.479,0.504c0.384,0,0.575,0.288,0.575,0.563C425.331,240.541,425.14,240.818,424.756,240.818z"/>
	<path fill="none" stroke="#000000" d="M408.641,252.843c-0.24,0-0.48-0.149-0.48-0.47v-5.087l-0.39,0.55
		c-0.109,0.149-0.229,0.21-0.38,0.21c-0.27,0-0.51-0.21-0.51-0.48c0-0.1,0.03-0.199,0.101-0.289l0.89-1.21
		c0.17-0.229,0.35-0.239,0.479-0.239h0.38c0.25,0,0.39,0.229,0.39,0.479v6.066C409.12,252.694,408.88,252.843,408.641,252.843z"/>
	<path fill="none" stroke="#000000" d="M412.731,252.843h-0.1c-0.93,0-1.68-0.709-1.68-1.629v-3.758c0-0.93,0.75-1.629,1.68-1.629
		h0.1c0.93,0,1.679,0.699,1.679,1.629v3.758C414.409,252.134,413.66,252.843,412.731,252.843z M413.45,247.456
		c0-0.4-0.32-0.68-0.72-0.68h-0.1c-0.4,0-0.72,0.279-0.72,0.68v3.758c0,0.39,0.319,0.689,0.72,0.689h0.1
		c0.399,0,0.72-0.3,0.72-0.689V247.456z"/>
	<path fill="none" stroke="#000000" d="M420.371,252.843h-0.07c-0.16,0-0.5-0.06-0.71-0.25v1.869c0,0.32-0.239,0.479-0.479,0.479
		s-0.479-0.159-0.479-0.479v-6.066c0-0.31,0.239-0.479,0.479-0.479c0.28,0,0.41,0.1,0.479,0.26c0.21-0.23,0.55-0.26,0.71-0.26h0.07
		c0.919,0,1.658,0.739,1.658,1.648v1.64C422.03,252.134,421.29,252.843,420.371,252.843z M421.071,249.565
		c0-0.39-0.31-0.699-0.699-0.699h-0.08c-0.39,0-0.7,0.34-0.7,0.699v1.64c0,0.39,0.311,0.699,0.7,0.699h0.08
		c0.39,0,0.699-0.31,0.699-0.699V249.565z"/>
	<path fill="none" stroke="#000000" d="M424.921,252.813c-0.76,0-1.359-0.6-1.359-1.358v-2.559h-0.16
		c-0.319,0-0.479-0.24-0.479-0.48c0-0.229,0.16-0.47,0.479-0.47h0.16v-1.639c0-0.32,0.24-0.479,0.47-0.479
		c0.24,0,0.489,0.159,0.489,0.479v1.639h0.351c0.319,0,0.479,0.24,0.479,0.47c0,0.24-0.16,0.48-0.479,0.48h-0.351v2.559
		c0,0.159,0.16,0.419,0.4,0.419c0.319,0,0.479,0.24,0.479,0.47C425.401,252.583,425.24,252.813,424.921,252.813z"/>
</g>
</svg>
