<?xml version="1.0" encoding="UTF-8" standalone="no"?><!DOCTYPE svg PUBLIC "-//W3C//DTD SVG 1.1//EN" "http://www.w3.org/Graphics/SVG/1.1/DTD/svg11.dtd"><svg width="100%" height="100%" viewBox="0 0 8268 3544" version="1.1" xmlns="http://www.w3.org/2000/svg" xmlns:xlink="http://www.w3.org/1999/xlink" xml:space="preserve" xmlns:serif="http://www.serif.com/" style="fill-rule:evenodd;clip-rule:evenodd;"><g id="Standard"><path d="M25.98,2730.52c104.688,-34.121 209.974,-49.997 316.433,-48.824c8.824,0 17.648,2.358 25.298,7.064l1308.67,813.435c36.468,21.179 82.357,-5.292 82.357,-47.639l0,-129.985c0,-116.457 97.625,-208.8 214.093,-202.922l2903.2,156.457c345.262,-0 625.228,-298.786 625.228,-666.988c-0,-368.19 -279.966,-666.987 -625.228,-666.987l-2903.2,156.456c-116.468,6.466 -214.093,-86.454 -214.093,-202.921l0,-129.975c0,-42.357 -45.889,-68.817 -82.357,-47.649l-1311.02,814.022c-7.651,4.705 -16.474,7.063 -25.287,7.063c-105.872,1.174 -211.745,-15.289 -316.444,-49.41" style="fill:none;fill-rule:nonzero;stroke:#1e1c1a;stroke-width:41.67px;"/></g></svg>