<?xml version="1.0" encoding="UTF-8" standalone="no"?>
<svg
   width="297mm"
   height="210mm"
   viewBox="0 0 1122.5197 793.70079"
   version="1.1"
   xml:space="preserve"
   style="clip-rule:evenodd;fill-rule:evenodd;stroke-linecap:round;stroke-linejoin:round"
   id="svg521"
   sodipodi:docname="vrrr.svg"
   inkscape:version="1.1.2 (b8e25be8, 2022-02-05)"
   xmlns:inkscape="http://www.inkscape.org/namespaces/inkscape"
   xmlns:sodipodi="http://sodipodi.sourceforge.net/DTD/sodipodi-0.dtd"
   xmlns="http://www.w3.org/2000/svg"
   xmlns:svg="http://www.w3.org/2000/svg"><defs
     id="defs525" /><sodipodi:namedview
     id="namedview523"
     pagecolor="#ffffff"
     bordercolor="#666666"
     borderopacity="1.0"
     inkscape:pageshadow="2"
     inkscape:pageopacity="0.0"
     inkscape:pagecheckerboard="0"
     showgrid="false"
     inkscape:zoom="0.12714777"
     inkscape:cx="23.594594"
     inkscape:cy="-786.48647"
     inkscape:window-width="1553"
     inkscape:window-height="870"
     inkscape:window-x="0"
     inkscape:window-y="23"
     inkscape:window-maximized="0"
     inkscape:current-layer="svg521"
     showguides="false"
     units="mm"
     inkscape:document-units="mm" /><path
     d="m -29.666121,453.19086 c 45.66568,-14.88383 91.59221,-21.80906 138.030421,-21.29739 3.84909,0 7.69819,1.02858 11.03517,3.08137 l 570.85158,354.82637 c 15.90762,9.23843 35.92474,-2.30841 35.92474,-20.78049 V 712.3203 c 0,-50.7994 42.58474,-91.0801 93.38895,-88.51607 l 1266.39736,68.2477 c 150.6058,0 272.7291,-130.33267 272.7291,-290.9451 0,-160.60721 -122.1233,-290.94467 -272.7291,-290.94467 L 819.56474,178.40943 c -50.80421,2.82051 -93.38895,-37.71188 -93.38895,-88.515651 v -56.69605 c 0,-18.47644 -20.01712,-30.01849 -35.92474,-20.78485 L 118.37438,367.4953 c -3.33742,2.05236 -7.18608,3.08093 -11.03037,3.08093 -46.182151,0.51211 -92.364741,-6.66917 -138.035221,-21.553"
     style="clip-rule:evenodd;fill:none;fill-rule:nonzero;stroke:#1e1c1a;stroke-width:18.1768px;stroke-linecap:round;stroke-linejoin:round"
     id="path6175-0" /></svg>
